<svg width="700" height="700" viewBox="0 0 700 700" fill="none" xmlns="http://www.w3.org/2000/svg">
<g clip-path="url(#clip0)">
<path fill-rule="evenodd" clip-rule="evenodd" d="M255.927 139.04V156.844H237.981V141.348C237.981 140.074 236.934 139.04 235.641 139.04H229.584V181.657C229.584 182.932 230.632 183.965 231.925 183.965H237.981V164.078H255.927V181.657C255.927 182.932 256.975 183.965 258.267 183.965H264.324V141.348C264.324 140.074 263.276 139.04 261.983 139.04H255.927Z" fill="#1D2243"/>
<path fill-rule="evenodd" clip-rule="evenodd" d="M291.538 150.18V171.533C291.538 173.473 290.534 175.313 288.831 176.283C284.076 178.994 279.154 175.61 279.154 171.146V152.487C279.154 151.213 278.107 150.18 276.814 150.18H270.734V171.907C270.734 178.899 276.533 184.619 283.623 184.619H287.069C294.159 184.619 299.96 178.899 299.96 171.907V152.487C299.96 151.213 298.913 150.18 297.62 150.18H291.538Z" fill="#1D2243"/>
<path fill-rule="evenodd" clip-rule="evenodd" d="M383.401 183.965H389.458V153.725C389.458 152.45 388.41 151.417 387.118 151.417H381.061V181.657C381.061 182.931 382.109 183.965 383.401 183.965Z" fill="#0A5EFF"/>
<path fill-rule="evenodd" clip-rule="evenodd" d="M385.26 148.223C387.848 148.223 389.946 146.155 389.946 143.603C389.946 141.05 387.848 138.98 385.26 138.98C382.672 138.98 380.574 141.05 380.574 143.603C380.574 146.155 382.672 148.223 385.26 148.223Z" fill="#0A5EFF"/>
<path fill-rule="evenodd" clip-rule="evenodd" d="M329.239 170.321C329.239 174.428 325.831 177.164 321.663 177.164C317.498 177.164 314.09 174.428 314.09 170.321V164.458C314.09 160.349 317.498 157.614 321.663 157.614C325.831 157.614 329.239 160.349 329.239 164.458V170.321ZM321.665 150.159H321.663C312.856 150.159 305.649 156.372 305.649 165.057V169.757C305.649 178.442 312.856 184.618 321.663 184.618H321.665C330.473 184.618 337.679 178.442 337.679 169.757V165.057C337.679 156.372 330.473 150.159 321.665 150.159Z" fill="#1D2243"/>
<path fill-rule="evenodd" clip-rule="evenodd" d="M366.956 170.321C366.956 174.428 363.548 177.164 359.38 177.164C355.215 177.164 351.807 174.428 351.807 170.321V164.458C351.807 160.349 355.215 157.614 359.38 157.614C363.548 157.614 366.956 160.349 366.956 164.458V170.321ZM359.382 150.159H359.38C356.628 150.159 354.032 150.767 351.763 151.865V141.393C351.763 140.118 350.715 139.083 349.423 139.083H343.366V169.757C343.366 178.442 350.573 184.618 359.38 184.618H359.382C368.19 184.618 375.398 178.442 375.398 169.757V165.057C375.398 156.372 368.19 150.159 359.382 150.159Z" fill="#0A5EFF"/>
<mask id="mask0" mask-type="alpha" maskUnits="userSpaceOnUse" x="177" y="124" width="27" height="62">
<path d="M177 124.8H203.566V185.973H177V124.8Z" fill="white"/>
</mask>
<g mask="url(#mask0)">
<path fill-rule="evenodd" clip-rule="evenodd" d="M203.566 143.626C203.566 134.844 199.227 127.291 195.927 124.831C195.914 124.824 195.675 124.69 195.695 125.041C195.695 125.047 195.692 125.049 195.692 125.052C195.416 142.012 186.63 146.607 181.8 152.799C170.654 167.088 181.019 182.753 191.577 185.649C197.482 187.267 190.212 182.782 189.275 173.305C188.144 161.851 203.566 153.109 203.566 143.626Z" fill="#1D2243"/>
</g>
<path fill-rule="evenodd" clip-rule="evenodd" d="M209.358 149.401C209.285 149.356 209.183 149.324 209.112 149.433C208.918 151.568 206.558 156.133 203.566 160.327C193.42 174.551 199.203 181.405 202.454 185.088C204.34 187.228 202.454 185.088 207.171 182.904C207.542 182.733 216.379 178.154 217.337 167.721C218.262 157.618 211.695 151.25 209.358 149.401Z" fill="#0A5EFF"/>
<path fill-rule="evenodd" clip-rule="evenodd" d="M422.09 156.793V141.298C422.09 140.024 421.042 138.989 419.749 138.989H413.691V181.606C413.691 182.88 414.741 183.913 416.033 183.913H422.09V177.674V164.03V156.793Z" fill="#1D2243"/>
<path fill-rule="evenodd" clip-rule="evenodd" d="M445.418 149.893C442.231 149.893 438.692 150.647 438.106 152.264V151.5C438.106 150.341 437.155 149.403 435.979 149.403H429.543V181.818C429.543 182.975 430.494 183.913 431.67 183.913H438.044V165.054C438.044 159.199 441.481 157.226 444.106 157.226C447.793 157.226 450.792 159.384 450.792 164.808V181.818C450.792 182.975 451.745 183.913 452.917 183.913H459.229V164.439C459.229 155.009 454.106 149.893 445.418 149.893Z" fill="#1D2243"/>
<mask id="mask1" mask-type="alpha" maskUnits="userSpaceOnUse" x="489" y="149" width="33" height="35">
<path d="M489.14 149.429H521.171V183.887H489.14V149.429Z" fill="white"/>
</mask>
<g mask="url(#mask1)">
<path fill-rule="evenodd" clip-rule="evenodd" d="M512.731 169.589C512.731 173.697 509.323 176.433 505.156 176.433C500.988 176.433 497.58 173.697 497.58 169.589V163.727C497.58 159.619 500.988 156.883 505.156 156.883C509.323 156.883 512.731 159.619 512.731 163.727V169.589ZM505.156 149.429C496.346 149.429 489.14 155.643 489.14 164.328V169.026C489.14 177.713 496.346 183.887 505.156 183.887C513.965 183.887 521.172 177.713 521.172 169.026V164.328C521.172 155.643 513.965 149.429 505.156 149.429Z" fill="#1D2243"/>
</g>
<path fill-rule="evenodd" clip-rule="evenodd" d="M486.014 138.376V143.67C486.014 144.924 484.986 145.938 483.714 145.934C482.429 145.929 480.815 145.925 479.452 145.925C475.978 145.925 473.984 147.639 473.984 152.078V152.565H486.014V157.85C486.014 159.101 484.988 160.115 483.719 160.115H473.984V181.799C473.984 183.048 472.959 184.064 471.688 184.064H465.431V151.062C465.431 143.07 469.675 138.376 478.424 138.376C481.803 138.376 484.254 138.471 486.014 138.376Z" fill="#1D2243"/>
</g>
<defs>
<clipPath id="clip0">
<rect width="700" height="700" fill="white"/>
</clipPath>
</defs>
</svg>
