<svg width="800" height="600" viewBox="0 0 800 600" fill="none" xmlns="http://www.w3.org/2000/svg">
<g filter="url(#filter0_d)">
<circle cx="400" cy="300" r="199" stroke="black" stroke-width="2"/>
</g>
<path d="M234.656 345V244.2H246.752V288.696H299.024V244.2H311.12V345H299.024V298.632H246.752V345H234.656ZM405.398 346.728C395.51 346.728 386.966 344.568 379.766 340.248C372.662 335.832 367.142 329.736 363.206 321.96C359.27 314.088 357.302 304.968 357.302 294.6C357.302 284.328 359.27 275.304 363.206 267.528C367.142 259.656 372.662 253.512 379.766 249.096C386.966 244.68 395.51 242.472 405.398 242.472C416.918 242.472 426.278 245.256 433.478 250.824C440.774 256.296 445.43 263.976 447.446 273.864H434.054C432.518 267.624 429.35 262.632 424.55 258.888C419.846 255.048 413.462 253.128 405.398 253.128C398.198 253.128 391.91 254.808 386.534 258.168C381.158 261.432 376.982 266.184 374.006 272.424C371.126 278.568 369.686 285.96 369.686 294.6C369.686 303.24 371.126 310.68 374.006 316.92C376.982 323.064 381.158 327.816 386.534 331.176C391.91 334.44 398.198 336.072 405.398 336.072C413.462 336.072 419.846 334.248 424.55 330.6C429.35 326.856 432.518 321.912 434.054 315.768H447.446C445.43 325.464 440.774 333.048 433.478 338.52C426.278 343.992 416.918 346.728 405.398 346.728ZM525.743 346.728C518.351 346.728 511.919 345.384 506.447 342.696C500.975 340.008 496.751 336.264 493.775 331.464C490.799 326.664 489.311 321.096 489.311 314.76H501.983C501.983 318.696 502.895 322.344 504.719 325.704C506.543 328.968 509.183 331.608 512.639 333.624C516.191 335.544 520.559 336.504 525.743 336.504C532.559 336.504 537.839 334.872 541.583 331.608C545.327 328.344 547.199 324.264 547.199 319.368C547.199 315.336 546.335 312.12 544.607 309.72C542.879 307.224 540.527 305.208 537.551 303.672C534.671 302.136 531.311 300.792 527.471 299.64C523.727 298.488 519.791 297.192 515.663 295.752C507.887 293.064 502.127 289.752 498.383 285.816C494.639 281.784 492.767 276.552 492.767 270.12C492.671 264.744 493.919 259.992 496.511 255.864C499.103 251.64 502.751 248.376 507.455 246.072C512.255 243.672 517.919 242.472 524.447 242.472C530.879 242.472 536.447 243.672 541.151 246.072C545.951 248.472 549.647 251.784 552.239 256.008C554.927 260.232 556.319 265.032 556.415 270.408H543.743C543.743 267.624 543.023 264.888 541.583 262.2C540.143 259.416 537.935 257.16 534.959 255.432C532.079 253.704 528.431 252.84 524.015 252.84C518.543 252.744 514.031 254.136 510.479 257.016C507.023 259.896 505.295 263.88 505.295 268.968C505.295 273.288 506.495 276.6 508.895 278.904C511.391 281.208 514.847 283.128 519.263 284.664C523.679 286.104 528.767 287.784 534.527 289.704C539.327 291.432 543.647 293.448 547.487 295.752C551.327 298.056 554.303 301.032 556.415 304.68C558.623 308.328 559.727 312.984 559.727 318.648C559.727 323.448 558.479 328.008 555.983 332.328C553.487 336.552 549.695 340.008 544.607 342.696C539.615 345.384 533.327 346.728 525.743 346.728Z" fill="black"/>
<defs>
<filter id="filter0_d" x="196" y="100" width="408" height="408" filterUnits="userSpaceOnUse" color-interpolation-filters="sRGB">
<feFlood flood-opacity="0" result="BackgroundImageFix"/>
<feColorMatrix in="SourceAlpha" type="matrix" values="0 0 0 0 0 0 0 0 0 0 0 0 0 0 0 0 0 0 127 0"/>
<feOffset dy="4"/>
<feGaussianBlur stdDeviation="2"/>
<feColorMatrix type="matrix" values="0 0 0 0 0 0 0 0 0 0 0 0 0 0 0 0 0 0 0.25 0"/>
<feBlend mode="normal" in2="BackgroundImageFix" result="effect1_dropShadow"/>
<feBlend mode="normal" in="SourceGraphic" in2="effect1_dropShadow" result="shape"/>
</filter>
</defs>
</svg>
